<svg width="257" height="161" viewBox="0 0 257 161" fill="none" xmlns="http://www.w3.org/2000/svg">
<path d="M231.5 58L229.182 53.39L224 52.655L227.75 49.065L226.863 44L231.5 46.39L236.137 44L235.25 49.065L239 52.65L233.818 53.39L231.5 58Z" fill="white"/>
<path d="M104.656 85.3672H105.852C106.883 85.3672 108.641 86.1406 111.125 87.6875L118.227 88.3906C122.211 88.0625 126.312 87.4531 130.531 86.5625C130.531 86.6094 130.695 86.8203 131.023 87.1953V87.6875C128.211 89.375 123.641 90.2188 117.312 90.2188C115.109 90.2188 113.188 90.0547 111.547 89.7266L111.758 92.0469V93.6641C111.758 98.2109 109.484 102.172 104.938 105.547C103.953 105.969 102.875 106.273 101.703 106.461C98.1875 106.461 96.1953 104.328 95.7266 100.062V98.2344C95.7266 93.7812 97.9531 90.3359 102.406 87.8984L103.531 87.6875L102.828 86.7734V86.5625C103.25 85.7656 103.859 85.3672 104.656 85.3672ZM105.852 88.6016C105.992 88.8828 106.062 89.1172 106.062 89.3047C106.062 89.5391 104.914 90.6875 102.617 92.75C101.258 95.3281 100.578 97.6016 100.578 99.5703V100.977C100.578 103.273 101.188 104.422 102.406 104.422C105.266 104.422 107.398 100.906 108.805 93.875V92.4688C108.805 89.8906 107.82 88.6016 105.852 88.6016ZM144.805 72.3594H145.016C146.188 72.5 146.773 72.8984 146.773 73.5547V73.625C146.773 74.2812 145.672 75.1719 143.469 76.2969C141.219 77.7031 139.039 79.2969 136.93 81.0781C134.164 83.5156 132.781 86.0234 132.781 88.6016C132.781 91.3203 134.75 94.1094 138.688 96.9688C141.5 98.9844 143.727 100.789 145.367 102.383C145.977 103.086 146.305 103.531 146.352 103.719H146.422C156.172 95.3281 163.461 90.1016 168.289 88.0391C169.695 87.4297 170.75 87.125 171.453 87.125H171.734C172.156 87.125 172.367 87.3359 172.367 87.7578C172.367 88.3203 171.594 88.7188 170.047 88.9531C166.625 90.0312 160.672 94.0391 152.188 100.977C148.859 103.836 147.148 105.359 147.055 105.547C147.523 106.578 147.758 107.773 147.758 109.133V109.555C147.758 114.852 144.547 120.922 138.125 127.766C132.781 132.875 128.586 135.43 125.539 135.43C124.086 135.43 123.102 134.75 122.586 133.391C122.539 133.062 122.516 132.781 122.516 132.547C122.516 128.328 129.359 119.703 143.047 106.672L144.383 105.547C143.727 103.625 140.75 101.164 135.453 98.1641C130.438 95.3047 127.93 92.3281 127.93 89.2344V88.9531C127.93 83.75 133.18 78.2656 143.68 72.5C144.148 72.4062 144.523 72.3594 144.805 72.3594ZM124.977 132.266V132.547C124.977 133.297 125.445 133.719 126.383 133.812C128.586 133.812 132.289 131.094 137.492 125.656C142.695 119.656 145.297 114.289 145.297 109.555C145.297 108.992 145.227 108.242 145.086 107.305H145.016C131.938 119.727 125.258 128.047 124.977 132.266ZM198.805 8.375H199.719C200.984 8.5625 201.617 9.05469 201.617 9.85156V10.2734C201.617 10.7891 200.891 11.8672 199.438 13.5078C192.547 26.8203 185.82 44.5859 179.258 66.8047C176.539 75.9453 174.148 86.2812 172.086 97.8125C170.258 108.594 169.344 115.438 169.344 118.344V118.414H169.484C177.266 100.883 183.148 88.2969 187.133 80.6562C191.492 72.875 194.914 68.9844 197.398 68.9844C199.93 68.9844 201.195 71.1875 201.195 75.5938V76.8594L200.703 92.0469C200.703 102.031 203.047 109.602 207.734 114.758V114.898C207.359 115.742 206.773 116.164 205.977 116.164C204.523 116.164 202.578 113.352 200.141 107.727C198.5 103.414 197.68 98.2578 197.68 92.2578L198.242 77V74.8203C198.242 72.5703 197.75 71.2578 196.766 70.8828C195.547 70.8828 193.227 74.0938 189.805 80.5156C185.773 88.6719 180.664 99.8281 174.477 113.984C171.617 120.5 169.555 123.758 168.289 123.758H167.867C166.883 123.758 166.391 122.609 166.391 120.312C166.391 111.688 168.969 95.5625 174.125 71.9375C179.328 50.4219 185.141 32.3984 191.562 17.8672C193.062 14.9609 194.234 12.4766 195.078 10.4141C196.484 9.05469 197.727 8.375 198.805 8.375Z" fill="white"/>
<path d="M82.3279 8.77441L82.5548 8.71572C83.1979 8.58164 83.5978 8.81714 83.7543 9.42223C84.0959 9.49525 84.3552 9.68642 84.532 9.99574C82.7779 31.0431 81.8298 53.3345 81.6876 76.8699L86.2124 75.4575C86.804 75.4982 87.1154 75.579 87.1467 75.7L87.2406 76.0631C87.3188 76.3656 86.9349 76.6909 86.0889 77.0388C83.0332 77.8292 81.5444 78.3756 81.6227 78.6782C81.4225 99.7432 81.9679 124.876 83.2588 154.077C83.0491 154.389 82.8081 154.581 82.5358 154.651L82.1728 154.745C81.719 154.863 81.3768 154.725 81.1462 154.333C79.611 121.193 78.7715 96.2327 78.6275 79.4529C66.7355 84.1427 56.9405 88.5161 49.2424 92.5731C43.6579 95.5669 39.8099 97.7242 37.6984 99.0451C37.4626 115.729 37.7414 131.845 38.5347 147.392C38.167 147.842 37.847 148.102 37.5747 148.173C37.1209 148.29 36.745 148.21 36.4472 147.932C35.6001 132.302 35.157 116.487 35.1179 100.487C26.2248 105.789 19.3222 110.738 14.4101 115.333C11.2612 118.633 9.89404 121.085 10.3088 122.688C10.6009 123.194 10.7705 123.537 10.8174 123.719C10.6051 124.645 10.0603 125.222 9.18293 125.449C7.91225 125.777 7.13213 125.382 6.84259 124.263L6.74869 123.9C5.37924 118.605 14.8445 110.024 35.1444 98.1563C35.0968 77.3813 35.6212 56.5713 36.7176 35.7264C37.174 34.9951 37.6744 34.559 38.219 34.4181L38.8997 34.242C39.4746 34.0934 39.9574 34.2751 40.3481 34.7874C39.0426 56.9452 38.2136 77.5758 37.861 96.6789C45.1794 92.5265 55.0772 87.7392 67.5544 82.317C71.0743 80.8255 74.7612 79.3555 78.615 77.9068C78.4196 52.9415 79.2413 30.473 81.0799 10.5013C81.2312 10.4622 81.4432 9.97158 81.716 9.02951L82.3279 8.77441Z" fill="white"/>
<path d="M226.114 74.6483L226.549 74.6362C227.615 74.8017 228.155 75.3726 228.17 76.3489C228.183 77.13 227.713 78.0548 226.763 79.1233C225.931 81.556 225.118 85.2905 224.326 90.3268C223.891 93.4647 223.686 95.8472 223.711 97.4745L223.729 98.6461C223.777 101.705 224.412 103.739 225.636 104.746C225.88 104.87 226.05 104.93 226.146 104.927L226.581 104.915C228.562 104.86 232.545 101.427 238.53 94.6174C240.432 92.5455 242.896 89.3508 245.923 85.0333C247.054 83.1783 247.828 81.6589 248.245 80.4751C248.529 80.0764 248.816 79.873 249.106 79.8649C249.59 79.9165 249.835 80.1701 249.842 80.6257L249.846 80.821C249.157 83.1845 246.419 87.4288 241.632 93.5538C236.885 99.1567 233.22 102.841 230.637 104.606C228.437 106.166 226.685 106.964 225.381 107L224.946 107.012C222.724 107.075 221.172 105.197 220.291 101.38C220.028 99.9545 219.887 98.6561 219.869 97.4844L219.849 96.2152C219.778 91.5938 220.731 86.032 222.709 79.5299C222.942 78.9373 223.196 78.1488 223.47 77.1643C224.267 75.5141 225.148 74.6754 226.114 74.6483Z" fill="white"/>
<path d="M75 80C103.923 69.0891 175.416 47.8491 230 50.1767" stroke="white" stroke-width="1.5"/>
</svg>
