<svg width="64" height="64" viewBox="0 0 64 64" fill="none" xmlns="http://www.w3.org/2000/svg">
<rect width="64" height="64" rx="32" fill="#110F19"/>
<path d="M48.1617 28.5367L48.469 26.1911L46.6925 24.5784L49.0392 24.1818L50.0067 22.0322L51.1503 24.1324L53.5244 24.4193L51.8843 26.1125L52.384 28.4377L50.2279 27.3846L48.1617 28.5367Z" fill="white"/>
<path d="M23.51 39.5946C28.5911 36.0035 40.9996 28.2252 49.9851 25.8413" stroke="white"/>
<path d="M35.7893 7.05467L35.8648 7.02643C36.0799 6.95742 36.2251 7.02355 36.3004 7.22482C36.4198 7.23749 36.5154 7.29352 36.587 7.39293C36.745 14.653 38.0222 30.3624 38.0222 30.3624L39.5186 29.7165C39.5186 29.7165 36.4716 32.1328 39.8467 29.7658C37.7678 30.8276 38.2555 30.2617 39.8919 29.8866C39.924 30.0867 39.5332 30.2617 39.5332 30.2617C38.9599 30.5434 38.6384 30.7014 38.0651 30.9831C38.0651 30.9831 39.8465 46.7676 41.3393 56.7062C41.2789 56.8205 41.2034 56.8947 41.1128 56.9286L40.992 56.9738C40.8411 57.0302 40.7191 56.9956 40.6262 56.8697C38.908 45.593 37.7222 37.0884 37.0688 31.3558C33.1713 33.3876 29.9794 35.2358 27.4932 36.9002C25.6914 38.125 24.4533 39.0012 23.7789 39.5289C24.299 45.2424 24.9746 50.743 25.8056 56.0305C25.6961 56.1976 25.596 56.2982 25.5054 56.3321C25.3545 56.3885 25.2231 56.3746 25.1112 56.2903C24.2588 50.9763 23.5379 45.5846 22.9484 40.1149C20.0984 42.2481 17.9163 44.1888 16.4021 45.937C15.4442 47.1787 15.065 48.0663 15.2645 48.5997C15.3826 48.762 15.4529 48.8733 15.4755 48.9337C15.4363 49.2581 15.2708 49.4749 14.9789 49.5841C14.5563 49.7423 14.2753 49.6352 14.136 49.2628L14.0908 49.1421C13.4319 47.381 16.3595 44.1059 22.8736 39.3169C22.1093 32.2148 21.5393 25.0801 21.1636 17.9129C21.2934 17.6464 21.4488 17.4793 21.63 17.4115L21.8564 17.3268C22.0476 17.2552 22.2192 17.3 22.3713 17.4611C22.7227 25.0848 23.182 32.1691 23.7493 38.7139C26.1022 37.0306 29.3143 35.0372 33.3856 32.7339C34.5355 32.0971 35.7432 31.4617 37.0088 30.8276C36.0432 22.298 35.5151 14.5855 35.4247 7.6901C35.4751 7.67127 35.5299 7.49588 35.5892 7.16392L35.7893 7.05467Z" fill="white"/>
</svg>
